<svg viewBox="0 0 96 43" fill="none" xmlns="http://www.w3.org/2000/svg">
<path d="M56.9728 21.4962C56.9728 21.8466 56.962 22.1969 56.9728 22.5478C57.0925 26.1124 55.9808 29.3239 54.1959 32.3521C53.5975 33.3676 53.0255 34.4004 52.5101 35.4612C52.0848 36.3334 51.4939 36.9446 50.5748 37.302C50.0615 37.5009 49.5855 37.8458 49.1553 38.2011C47.1747 39.8381 44.9277 41.0105 42.5244 41.8362C40.9281 42.3844 39.2844 42.8668 37.5502 42.8453C37.0332 42.8394 36.5151 42.9984 35.997 43C35.4789 43.0016 34.9614 42.8334 34.4482 42.8555C32.212 42.9515 30.1402 42.2626 28.0836 41.5398C25.8388 40.7517 23.8565 39.5066 21.9918 38.0226C19.3604 35.9296 17.4855 33.2933 16.107 30.2753C15.3641 28.6485 14.7592 26.9694 14.5883 25.1642C14.5598 24.8646 14.4606 24.5681 14.3727 24.2776C13.7474 22.2524 14.1069 20.2667 14.494 18.2491C14.79 16.7059 15.0946 15.1815 15.6709 13.7165C17.1943 9.84144 19.6138 6.66821 22.9649 4.17577C25.7585 2.09999 28.8852 0.824121 32.2848 0.275934C36.1857 -0.353106 39.9939 0.0996736 43.6889 1.56959C45.5326 2.30536 47.2722 3.23732 48.7914 4.47115C50.2087 5.62196 51.4869 6.96845 52.6945 8.34457C53.7889 9.59187 54.5657 11.0774 55.2595 12.5932C56.3431 14.9611 57.0493 17.412 56.9776 20.0451C56.962 20.5319 56.9733 21.0143 56.9728 21.4962ZM55.4752 16.6989C55.3673 15.8715 55.3 14.9126 55.0978 13.9822C54.522 11.3049 52.9732 9.21509 50.909 7.50855C49.737 6.53831 48.4593 5.69527 47.2 4.83769C46.7736 4.54715 46.2781 4.28034 45.78 4.19086C44.4997 3.95477 43.2048 3.73431 41.9071 3.66801C39.6548 3.55319 37.6316 2.97159 35.9312 1.40411C34.6795 0.251139 33.3166 0.139561 32.0158 1.15454C30.5413 2.30374 28.8631 2.97859 27.1526 3.64644C25.8992 4.13588 24.6921 4.75252 23.4867 5.36162C22.4797 5.87153 21.8931 6.66659 21.9071 7.87077C21.9152 8.54616 21.6058 9.11052 20.981 9.4846C20.4596 9.79848 19.9588 10.1454 19.4817 10.5233C18.1486 11.5733 17.1097 12.7559 16.8854 14.5913C16.7081 16.0429 16.2693 17.4778 15.2752 18.6733C14.943 19.0847 14.7371 19.5834 14.6822 20.1093C14.5905 21.1943 14.6282 22.2923 14.6552 23.3839C14.6627 23.676 14.7894 23.9892 14.9388 24.2463C15.2821 24.8538 15.656 25.4435 16.059 26.0132C17.0348 27.371 17.8833 28.7622 18.0795 30.4871C18.2693 32.1581 19.0758 33.5196 20.4403 34.5589C22.4166 36.0649 24.3218 37.6637 26.3277 39.1303C27.4059 39.9205 28.5602 40.6116 29.9823 40.7717C31.4044 40.9318 32.7985 41.3193 34.0735 42.0362C34.3408 42.1803 34.6339 42.2703 34.9361 42.3009C36.735 42.4949 38.4003 42.0491 39.9799 41.2067C40.4753 40.9425 40.9853 40.7027 41.498 40.473C42.7325 39.92 44.1013 39.5567 45.1768 38.7864C46.373 37.9278 47.6523 37.5467 49.0254 37.3068C49.6184 37.2028 50.1036 36.9581 50.4896 36.5166C50.9505 35.9927 51.3769 35.4386 51.8573 34.9324C52.3538 34.4101 52.7123 33.8544 52.7991 33.11C52.9322 31.9689 53.4201 30.9614 54.039 29.9934C55.087 28.358 55.6827 26.5506 55.9927 24.629C56.0741 24.125 56.1205 23.6986 55.8709 23.255C55.1496 21.9748 55.4439 20.5211 55.2159 19.1585C55.1005 18.4216 55.3663 17.6158 55.4779 16.6973L55.4752 16.6989ZM46.793 3.90949C46.4884 3.5726 46.3919 3.42005 46.2539 3.32572C46.0048 3.15324 45.7331 3.01255 45.4684 2.86325C43.2042 1.58684 40.7244 0.966422 38.1906 0.520649C37.6817 0.430633 37.1464 0.47106 36.6272 0.491004C36.4919 0.495855 36.3307 0.627376 36.245 0.745961C36.2056 0.799863 36.2941 0.988524 36.369 1.07854C36.9326 1.75069 37.6677 2.25771 38.4963 2.54576C39.9267 3.061 41.4304 3.34362 42.9503 3.38286C43.594 3.40065 44.236 3.52247 44.877 3.60979C45.4237 3.68741 45.9698 3.78066 46.793 3.90949ZM27.5564 40.6946C26.0366 39.4516 24.7045 38.3407 23.3487 37.2594C22.2263 36.3646 21.0796 35.5 19.9324 34.637C19.8036 34.54 19.6003 34.5427 19.3184 34.4699C20.7006 36.7921 25.3164 40.32 27.5564 40.6946ZM17.3173 11.6892C18.2337 10.9885 19.0817 10.2511 20.0128 9.64092C21.3179 8.7898 21.8171 7.7317 21.5088 5.91519C20.5826 6.67306 19.9222 7.58617 19.2079 8.41572C18.4531 9.29056 17.8936 10.3325 17.2644 11.3119C17.2159 11.3911 17.2946 11.5474 17.3173 11.6892ZM48.2264 38.1903C47.3714 38.1315 46.5105 38.2825 45.9741 38.7444C44.9563 39.6203 43.7455 40.0607 42.5136 40.4989C41.8667 40.7285 41.257 41.066 40.6478 41.3878C40.5637 41.432 40.5481 41.6686 40.5653 41.8082C40.5713 41.8551 40.7993 41.9322 40.8931 41.9004C41.9993 41.5231 43.1422 41.2191 44.1897 40.7145C45.4744 40.0979 46.6803 39.3168 47.9095 38.5924C48.0383 38.5202 48.1062 38.3493 48.2264 38.1903ZM15.563 26.0439C15.3172 26.7689 15.3657 27.1705 15.5204 27.5979C15.949 28.7838 16.2094 30.0354 16.9819 31.0714C17.2682 31.4557 17.327 32.3149 17.8553 32.1295C18.3205 31.9678 17.776 31.2875 17.7442 30.8288C17.6224 29.0765 16.7016 27.6642 15.563 26.0439ZM23.856 4.22158L23.9708 4.39461C24.6096 4.15744 25.2544 3.93321 25.8868 3.67933C27.2611 3.12773 28.6311 2.56588 29.9969 1.9938C30.2723 1.87737 30.5246 1.69087 30.7597 1.50221C30.8254 1.44831 30.8136 1.2672 30.7931 1.15508C30.7823 1.10495 30.6524 1.05051 30.5775 1.04728C30.4493 1.05007 30.3223 1.07113 30.2001 1.1098C28.3434 1.63751 26.5924 2.41855 24.9169 3.36669C24.525 3.58877 24.2069 3.93375 23.856 4.22158ZM56.4633 23.0416C56.5755 22.9111 56.6633 22.8567 56.6693 22.7952C56.8504 20.886 56.6482 18.9941 56.3868 17.1069C56.3738 17.0121 56.2423 16.8762 56.1528 16.8649C56.0542 16.852 55.9005 16.9339 55.8407 17.0223C55.7423 17.1623 55.6811 17.3249 55.6628 17.495C55.5643 19.0514 55.6668 20.614 55.9679 22.1441C56.0272 22.453 56.2827 22.7246 56.4633 23.0416ZM15.1145 17.7732C15.8391 17.4966 15.9474 16.9959 16.025 16.5442C16.2143 15.4419 16.6876 14.3811 16.5313 13.2157C15.7738 14.6064 15.1021 16.0154 15.115 17.7732H15.1145ZM32.6503 41.971C31.026 41.2519 30.5855 41.1765 29.1397 41.3781C29.7526 41.6104 30.3041 41.9796 30.8589 41.9855C31.4373 41.9942 32.0638 42.703 32.6508 41.971H32.6503Z" fill="#2E2520"/>
<path d="M35.9997 27.6723C34.8892 27.6524 34.1263 27.1872 33.5614 26.2886C33.0352 25.4505 32.1597 25.0155 31.3581 24.4991C30.3473 23.8485 29.5251 23.1143 29.2917 21.7954C29.13 20.9011 29.3181 20.1244 29.6809 19.4183C29.9855 18.828 30.5289 18.2798 31.0998 17.9289C31.7187 17.5484 32.2319 17.1894 32.5177 16.4865C32.8411 15.678 33.6562 15.6289 34.3781 15.4834C35.0579 15.3465 35.749 15.2586 36.4191 15.0872C37.3356 14.8533 38.1674 14.9255 38.837 15.6397C39.3545 16.1938 39.9588 16.5911 40.6327 16.9274C41.3335 17.2767 41.5648 17.6848 41.3454 18.4146C41.1961 18.91 41.3405 19.2474 41.5249 19.643C41.7265 20.0743 41.9341 20.5125 42.0726 20.968C42.5341 22.4837 42.0031 23.7596 40.582 24.4344C39.7011 24.8527 39.0267 25.41 38.8073 26.3905C38.7195 26.7856 38.4731 27.0099 38.1248 27.1123C37.4218 27.3182 36.7086 27.488 35.9997 27.6723ZM40.6618 21.3178C40.6845 18.6475 38.6618 16.5124 36.0315 16.5092C33.6713 16.5092 31.2971 18.1074 31.205 21.1701C31.1311 23.6216 33.1716 25.9049 35.8315 25.9135C39.0709 25.9297 40.5987 23.6787 40.6618 21.3178ZM31.1791 23.8706C31.1791 23.5283 31.212 23.3531 31.1742 23.1952C30.8254 21.7447 30.5985 20.3082 31.3899 18.911C31.447 18.8108 31.3155 18.6038 31.2713 18.4464C31.116 18.4965 30.9284 18.5068 30.8109 18.6033C29.5036 19.677 28.9203 22.2551 31.1791 23.8706ZM36.0342 15.8391C36.5814 16.0397 36.8935 16.182 37.2202 16.2704C38.4251 16.5895 39.4532 17.163 40.1685 18.2206C40.3098 18.4286 40.492 18.738 40.7616 18.5008C40.905 18.3742 40.9519 17.9872 40.8694 17.7936C40.7578 17.5365 40.5044 17.2158 40.2607 17.1651C39.5987 17.0266 39.2364 16.5469 38.8052 16.1286C38.0795 15.4316 37.2693 15.2128 36.0342 15.8391ZM35.9598 26.3501L35.9436 26.2493C35.5965 26.2493 35.246 26.2197 34.9043 26.2617C34.7285 26.2833 34.5689 26.4326 34.4024 26.5242C34.5538 26.6584 34.6859 26.8697 34.8606 26.9134C35.7943 27.1489 36.7356 27.1996 37.6563 26.839C37.8138 26.777 37.989 26.6961 38.0876 26.5695C38.175 26.4617 38.2035 26.2703 38.1857 26.1253C38.1787 26.0714 37.9609 25.99 37.8531 26.0073C37.2208 26.1065 36.5911 26.2315 35.9625 26.3485L35.9598 26.3501ZM40.7351 23.6113C41.3821 23.4911 41.671 23.1262 41.7088 22.5651C41.7367 22.0921 41.7299 21.6178 41.6883 21.1458C41.678 21.0213 41.5044 20.9103 41.4058 20.7928C41.2618 20.9291 40.9696 21.1124 40.9961 21.1943C41.2586 22.0131 40.7098 22.7462 40.7351 23.6097V23.6113Z" fill="#2E2520"/>
<path d="M46.6528 27.3085C46.6156 27.3274 46.4658 27.4529 46.3035 27.4702C46.1558 27.4874 45.9401 27.4379 45.8485 27.3344C45.3886 26.8153 44.9423 26.2816 44.5309 25.7238C44.4231 25.5777 44.3789 25.1847 44.4404 25.1508C44.6425 25.0392 45.0377 24.9228 45.1256 25.0193C45.6458 25.5933 46.1035 26.2245 46.5736 26.8433C46.6194 26.9053 46.6054 27.0115 46.6528 27.3085Z" fill="#2E2520"/>
<path d="M24.629 31.8045C24.8695 31.8239 25.3444 31.8384 25.8075 31.9177C25.9229 31.9376 26.0771 32.1635 26.0771 32.2982C26.0771 32.433 25.9439 32.6658 25.8285 32.6944C24.9282 32.9181 24.0323 32.9731 23.2355 32.371C23.1905 32.3291 23.1557 32.2774 23.1337 32.2199C23.1117 32.1625 23.1032 32.1007 23.1088 32.0395C23.126 31.9495 23.2657 31.8239 23.3595 31.8174C23.705 31.7883 24.0517 31.8045 24.629 31.8045Z" fill="#2E2520"/>
<path d="M52.8411 12.8492L53.1818 13.0357C53.0853 13.2087 53.026 13.4868 52.8853 13.537C52.2371 13.7754 51.5719 13.9653 50.8955 14.1051C50.7009 14.1434 50.4184 13.952 50.2389 13.7941C50.0319 13.6114 50.1553 13.2146 50.4163 13.1748C51.1834 13.0567 51.9559 12.9662 52.8411 12.8492Z" fill="#2E2520"/>
<path d="M29.9246 35.6639C30.2847 35.8321 30.5861 35.8795 30.7333 36.059C31.1363 36.5592 31.5049 37.0862 31.8368 37.6362C31.9985 37.8981 31.8508 38.1817 31.5786 38.2571C31.4292 38.2986 31.1586 38.1768 31.0486 38.0415C30.6092 37.5122 30.2019 36.9569 29.8292 36.3786C29.7429 36.2412 29.8766 35.9652 29.9246 35.6639Z" fill="#2E2520"/>
<path d="M44.0544 14.8053C44.077 14.6522 44.0544 14.477 44.1261 14.4097C44.2231 14.3213 44.4312 14.2479 44.5309 14.2959C44.6673 14.3611 44.7557 14.5401 44.8495 14.6808C45.1105 15.0721 45.3687 15.4656 45.6172 15.8666C45.7283 16.0461 45.8776 16.2375 45.8868 16.431C45.8975 16.6099 45.7886 16.8423 45.6539 16.9652C45.5789 17.0342 45.27 16.9894 45.194 16.894C44.6959 16.2607 44.0986 15.6677 44.0544 14.8053Z" fill="#2E2520"/>
<path d="M45.6043 8.07614C45.4965 8.72297 45.4533 9.19893 45.3277 9.65494C45.249 9.90128 45.0989 10.1187 44.8964 10.2797C44.7536 10.395 44.5045 10.3783 44.3034 10.4204C44.2873 10.2322 44.2285 10.036 44.2625 9.85761C44.3676 9.30673 44.5083 8.76232 44.6344 8.21575C44.6441 8.17316 44.6414 8.12788 44.6538 8.08638C44.753 7.7565 44.9676 7.50531 45.311 7.64169C45.4841 7.71068 45.5649 8.01307 45.6043 8.07614Z" fill="#2E2520"/>
<path d="M36.3091 12.2827C36.6121 12.3204 37.004 12.3409 37.3782 12.4314C37.5059 12.4622 37.6946 12.6923 37.6725 12.7915C37.6337 12.9689 37.486 13.2022 37.3302 13.2551C37.0833 13.3322 36.8189 13.3335 36.5711 13.2588C36.1399 13.1214 35.7382 13.0756 35.308 13.2556C35.0256 13.3742 34.7603 13.2497 34.6848 12.9683C34.584 12.591 34.8676 12.4083 35.1862 12.3549C35.5258 12.2983 35.8768 12.3075 36.3091 12.2827Z" fill="#2E2520"/>
<path d="M43.0333 30.866C42.9109 31.4013 42.8177 31.8708 42.6856 32.3295C42.6597 32.4195 42.47 32.5408 42.3902 32.5203C42.2468 32.4853 42.0452 32.3721 42.016 32.2546C41.9515 32.0008 41.9442 31.7359 41.9945 31.4789C42.0958 31.0089 42.1956 30.5626 42.0053 30.0823C41.9147 29.8521 41.9406 29.4851 42.2899 29.4861C42.478 29.4861 42.7487 29.719 42.8333 29.9114C42.9708 30.2192 42.9799 30.5814 43.0333 30.866Z" fill="#2E2520"/>
<path d="M37.7286 30.7286C37.6585 30.8542 37.6245 31.0024 37.5324 31.066C36.9647 31.4573 36.3959 31.8503 35.7986 32.1926C35.6461 32.2799 35.3781 32.226 35.1835 32.1683C34.8983 32.0837 34.839 31.7085 35.0757 31.5565C35.7291 31.1377 36.3862 30.7221 37.0596 30.3362C37.1674 30.2742 37.383 30.341 37.5221 30.41C37.6165 30.4575 37.6569 30.6105 37.7286 30.7286Z" fill="#2E2520"/>
<path d="M30.4961 5.58369C30.5882 5.6376 30.7618 5.68503 30.785 5.7702C31.0104 6.60083 31.2276 7.43416 31.4066 8.27504C31.4562 8.50843 31.1473 8.63834 30.9403 8.49873C30.2885 8.05997 29.8826 6.43481 30.2626 5.7551C30.302 5.68772 30.3979 5.65377 30.4961 5.58369Z" fill="#2E2520"/>
<path d="M38.5502 7.943C38.3539 7.81202 38.1421 7.74518 38.1135 7.63198C38.0828 7.50909 38.1841 7.29941 38.2941 7.20076C38.7724 6.77327 39.2726 6.37097 39.7928 5.99551C39.968 5.87207 40.3319 5.78475 40.4667 5.88124C40.7847 6.10493 40.6176 6.42026 40.396 6.65096C40.0985 6.96198 39.803 7.2897 39.4602 7.54089C39.1971 7.73008 38.8596 7.81148 38.5502 7.943Z" fill="#2E2520"/>
<path d="M26.1569 12.3317L25.6803 12.7823C25.5444 12.6352 25.3428 12.5128 25.2857 12.3371C25.0571 11.6493 24.8657 10.9491 24.684 10.2473C24.6592 10.1508 24.7379 9.95355 24.8188 9.92013C24.9509 9.86623 25.1681 9.84467 25.2684 9.92013C25.4663 10.0662 25.6922 10.2619 25.7568 10.4813C25.9267 11.0526 26.0161 11.6499 26.1569 12.3317Z" fill="#2E2520"/>
<path d="M20.9395 23.8609C20.5023 24.6624 20.1702 25.4834 19.3561 25.9205C19.2192 25.9938 18.9162 25.9 18.7696 25.7831C18.5205 25.5852 18.7696 25.4208 18.8909 25.2521C19.2731 24.726 19.6262 24.1773 20.0322 23.6712C20.1367 23.5413 20.4025 23.4771 20.5831 23.4949C20.706 23.5062 20.8063 23.7154 20.9395 23.8609Z" fill="#2E2520"/>
<path d="M25.8781 23.9288C26.1062 24.0609 26.2717 24.1002 26.3024 24.187C26.3531 24.3293 26.3795 24.553 26.3024 24.6516C26.1773 24.809 25.9633 24.8996 25.7789 25.0052C25.3008 25.2796 24.8291 25.5691 24.332 25.803C24.1805 25.8741 23.9061 25.8526 23.7713 25.7566C23.4937 25.5588 23.5913 25.2419 23.8145 25.1023C24.497 24.6748 25.2145 24.3007 25.8781 23.9288Z" fill="#2E2520"/>
<path d="M50.5947 20.299C50.419 20.6952 50.1721 21.293 49.8793 21.8676C49.834 21.9565 49.5505 22.005 49.4303 21.9517C49.3187 21.9015 49.1968 21.6768 49.2195 21.555C49.337 20.9162 49.4669 20.2753 49.6648 19.6587C49.7251 19.4705 49.9979 19.2997 50.2076 19.2366C50.2853 19.2134 50.4885 19.5061 50.585 19.6851C50.64 19.7859 50.5947 19.9411 50.5947 20.299Z" fill="#2E2520"/>
<path d="M20.8025 15.5362C21.5761 16.2305 21.4839 17.1732 21.5697 18.0438C21.5858 18.2055 21.3848 18.4367 21.2241 18.5537C21.14 18.6151 20.7982 18.5165 20.7901 18.4599C20.6683 17.5807 20.5745 16.6967 20.4996 15.8117C20.4936 15.7362 20.6753 15.644 20.8025 15.5362Z" fill="#2E2520"/>
<path d="M38.8801 37.0341C39.0098 37.0684 39.1374 37.1102 39.2623 37.1591C39.727 37.3747 40.1944 37.5844 40.6478 37.8216C40.8634 37.9337 41.0791 38.0739 41.2343 38.2528C41.4128 38.4603 41.209 38.8587 40.9594 38.8042C40.1163 38.622 39.2925 38.3676 38.6618 37.737C38.5685 37.6437 38.5707 37.4103 38.6009 37.2556C38.6186 37.1683 38.7815 37.1079 38.8801 37.0341Z" fill="#2E2520"/>
<path d="M28.6194 15.7901C28.6642 15.9297 28.8173 16.1464 28.7634 16.2822C28.4804 17.0018 28.1526 17.7047 27.8189 18.4027C27.7779 18.4884 27.6033 18.5644 27.4997 18.5504C27.4092 18.5391 27.2841 18.4119 27.2604 18.3154C27.0836 17.5376 27.641 16.1453 28.2626 15.7949C28.3267 15.7588 28.4291 15.7901 28.6194 15.7901Z" fill="#2E2520"/>
<path d="M52.7285 27.5996C52.6314 27.5381 52.4293 27.4632 52.3241 27.3182C52.2821 27.2605 52.4179 26.9975 52.5349 26.9134C53.0535 26.5361 53.5829 26.1755 54.135 25.8531C54.2838 25.7663 54.5932 25.7599 54.7026 25.8574C54.8034 25.948 54.8185 26.2887 54.7274 26.4137C54.2649 27.0584 53.6816 27.55 52.7285 27.5996Z" fill="#2E2520"/>
<path d="M49.5251 33.1504C49.1251 33.1089 48.951 33.1046 48.7844 33.0674C48.7138 33.0518 48.6087 32.9682 48.6076 32.9138C48.6001 32.7912 48.632 32.6693 48.6987 32.5661C48.7845 32.4687 48.8969 32.3984 49.0222 32.364C49.6389 32.1786 50.2562 31.9926 50.882 31.8422C51.0179 31.8099 51.3042 31.8993 51.3219 31.977C51.3629 32.1613 51.3139 32.3839 51.2416 32.5699C51.2034 32.668 51.0508 32.7499 50.9338 32.7855C50.3979 32.9327 49.8599 33.0642 49.5251 33.1504Z" fill="#2E2520"/>
<path d="M30.9548 28.6954C30.9106 28.8835 30.8389 29.3002 30.7004 29.6931C30.6659 29.7907 30.3963 29.8845 30.2723 29.8489C30.1483 29.8133 30.0028 29.609 30.0065 29.4813C30.0195 28.7541 30.0556 28.0259 30.1295 27.302C30.1451 27.1441 30.3451 27.005 30.4605 26.8573C30.5985 27.0034 30.8222 27.1322 30.8572 27.2999C30.9354 27.675 30.9187 28.0696 30.9548 28.6954Z" fill="#2E2520"/>
<path d="M59.8562 5.9426C59.8562 4.4022 60.2287 3.23421 60.9736 2.43861C61.727 1.63456 62.692 1.23253 63.8686 1.23253C65.0452 1.23253 65.9806 1.57954 66.6747 2.27357C67.3773 2.9676 67.7286 4.07635 67.7286 5.59982C67.7286 7.1233 67.3561 8.27436 66.6112 9.05303C65.8663 9.83169 64.8717 10.221 63.6273 10.221C62.5523 10.221 61.6719 9.9121 60.9863 9.29425C60.6308 8.97262 60.3514 8.52828 60.1483 7.96121C59.9536 7.38567 59.8562 6.7128 59.8562 5.9426ZM63.8305 1.35949C62.9755 1.35949 62.273 1.74036 61.7227 2.50209C61.181 3.26383 60.9101 4.38104 60.9101 5.85373C60.9101 7.32643 61.1683 8.40132 61.6846 9.07842C62.201 9.75552 62.8867 10.0941 63.7416 10.0941C64.605 10.0941 65.3076 9.7132 65.8494 8.95146C66.3996 8.18126 66.6747 7.06828 66.6747 5.61252C66.6747 4.14829 66.4123 3.0734 65.8875 2.38783C65.3711 1.70227 64.6855 1.35949 63.8305 1.35949Z" fill="#2E2520"/>
<path d="M69.9247 10.1702H68.8709V1.28331H69.9247V5.3713H74.0514V1.28331H75.1053V10.1702H74.0514V5.49826H69.9247V10.1702Z" fill="#2E2520"/>
<path d="M80.5226 10.1702H80.3575L81.4622 1.28331H81.8812L84.5477 9.49738L87.2014 1.28331H87.6204L88.7251 10.1702H87.6712L86.7951 3.0607L84.4969 10.1702H83.6969L81.3733 3.14957L80.5226 10.1702Z" fill="#2E2520"/>
<path d="M95.7588 1.28331C95.9196 1.44412 96 1.65149 96 1.9054C96 2.11699 95.9534 2.33282 95.8603 2.55287L93.5875 7.16138V10.1702H92.5336V7.44069L89.9941 1.28331H91.0734L93.4986 7.00904L95.708 2.55287C95.8011 2.34128 95.8476 2.12122 95.8476 1.8927C95.8476 1.66418 95.7841 1.48644 95.6572 1.35949L95.7588 1.28331Z" fill="#2E2520"/>
<path d="M1.79002 12.5053C2.44636 12.4755 3.08779 12.4605 3.71429 12.4605C4.35572 12.4605 5.02698 12.5277 5.72807 12.6619C6.44408 12.7961 7.14517 13.0497 7.83134 13.4226C8.53243 13.7805 9.12165 14.2503 9.59899 14.832C10.0912 15.3988 10.4865 16.152 10.7849 17.0916C11.0832 18.0312 11.2324 19.1722 11.2324 20.5145C11.2324 21.8569 11.0086 23.065 10.5611 24.1388C10.1285 25.1978 9.53186 26.0106 8.7711 26.5774C7.29434 27.6811 5.51177 28.2329 3.42342 28.2329C2.69249 28.2329 1.92427 28.2031 1.11876 28.1434H0V12.5053H1.79002ZM1.85715 27.9645C2.1704 27.9943 2.5657 28.0092 3.04304 28.0092C3.52038 28.0092 3.87838 28.0017 4.11705 27.9868C4.35572 27.9719 4.68389 27.9123 5.10156 27.8078C5.51923 27.6885 5.90707 27.5319 6.26507 27.338C6.62308 27.1441 6.996 26.8608 7.38384 26.4879C7.78659 26.1001 8.12968 25.6452 8.4131 25.1232C9.05452 23.9002 9.37524 22.3043 9.37524 20.3355C9.37524 18.9336 9.20369 17.7255 8.86061 16.7113C8.51752 15.6821 8.12222 14.9215 7.67472 14.4293C7.24213 13.9371 6.71258 13.5493 6.08607 13.2659C5.45957 12.9677 4.95985 12.7961 4.58693 12.7514C4.21401 12.7066 3.78142 12.6843 3.28916 12.6843C2.79691 12.6843 2.31957 12.7066 1.85715 12.7514V27.9645Z" fill="#2E2520"/>
<path d="M60.2194 28.1434H59.9286V12.4829H60.6893L69.9974 26.9577V12.4829H70.2883V28.1434H68.6549L60.2194 15.1676V28.1434Z" fill="#2E2520"/>
<path d="M84.0664 12.4829H84.3573V21.4318C84.3573 23.7734 83.8949 25.4961 82.97 26.5998C82.0452 27.6885 80.8369 28.2329 79.3452 28.2329C78.4055 28.2329 77.6074 28.1509 76.9511 27.9868C76.2947 27.8078 75.6757 27.4872 75.0939 27.0248C73.9006 26.1001 73.3039 24.2358 73.3039 21.4318V12.4829H75.161V21.4094C75.161 24.1239 75.5713 25.936 76.3917 26.8458C76.8093 27.2933 77.2419 27.599 77.6894 27.7631C78.1519 27.9272 78.7038 28.0092 79.3452 28.0092C80.7772 28.0092 81.9184 27.4872 82.7686 26.4431C83.6338 25.3842 84.0664 23.7063 84.0664 21.4094V12.4829Z" fill="#2E2520"/>
<path d="M91.9904 28.1434H90.1332V12.7066H86.2623V12.4829H95.8837V12.7066H91.9904V28.1434Z" fill="#2E2520"/>
</svg>
